# xmcd
#
# Track frame offsets: 
#        150
#        20945
#        34647
#        51616
#        68773
#        82822
#        95785
#        108243
#        120537
#        133112
#        148951
#        162553
#        174392
#        184155
#        195624
#
# Disc length: 2806 seconds
#
# Revision: 0
# Processed by: cddbd v1.5.2PL0 Copyright (c) Steve Scherf et al.
# Submitted via: ExactAudioCopy v0.99pb5
#
DISCID=dd0af40f
DTITLE=Various Artist - Formidable Rhythm and Blues [CD4 - Lent)
DYEAR=2008
DGENRE=R&B
TTITLE0=Booker T. and The MG's - Summertime
TTITLE1=Percy Sledge - Love Me Tender
TTITLE2=Otis Redding - You're Still My Baby
TTITLE3=Aretha Franklin - All The King's Horses
TTITLE4=Sam and Dave - These Arms Of Mine
TTITLE5=Ben E. King - Spanish Harlem
TTITLE6=Billy Vera and Judy Clay - So Good (To Be Together)
TTITLE7=Solomon Burke - Tonight's The Night
TTITLE8=Wilson Pickett - It's A Groove
TTITLE9=Soul Clan - That's How It Feels
TTITLE10=Esther Phillips - When Love Comes To The Human Race 
TTITLE11=Clarence Carter - I Stayed Away Too Long
TTITLE12=The Sweet Inspirations - That's How Strong My Love is
TTITLE13=Lavern Baker - I Cried A Tear
TTITLE14=Ray Charles - Drown In My Own Tears
EXTD=
EXTT0=
EXTT1=
EXTT2=
EXTT3=
EXTT4=
EXTT5=
EXTT6=
EXTT7=
EXTT8=
EXTT9=
EXTT10=
EXTT11=
EXTT12=
EXTT13=
EXTT14=
PLAYORDER=
